<svg xmlns="http://www.w3.org/2000/svg" version="1.1" xmlns:xlink="http://www.w3.org/1999/xlink" xmlns:svgjs="http://svgjs.com/svgjs" width="512" height="512" x="0" y="0" viewBox="0 0 512 512" style="enable-background:new 0 0 512 512" xml:space="preserve"><g><path d="M475.803 5.184A16.034 16.034 0 0 0 463.995 0h-416c-4.48 0-8.768 1.888-11.808 5.184-3.008 3.328-4.512 7.744-4.128 12.192l37.888 432c.576 6.656 5.184 12.192 11.584 14.016l170.112 48c1.44.416 2.88.608 4.352.608 1.472 0 2.944-.192 4.352-.576l170.048-47.968c6.4-1.824 10.976-7.392 11.584-14.016l37.952-432.032c.417-4.48-1.088-8.896-4.128-12.224zm-64.704 430.432L255.995 479.36l-155.136-43.776L65.467 32h381.056l-35.424 403.616z" fill="#000000" data-original="#000000"/><path d="M379.675 101.056c-3.008-3.232-7.232-5.056-11.68-5.056h-224c-8.832 0-16 7.168-16 16s7.168 16 16 16h206.912l-14.176 212.224-80.736 26.912-80-26.656V320c0-8.832-7.168-16-16-16s-16 7.168-16 16v32c0 6.88 4.416 12.992 10.944 15.2l96 32c1.632.512 3.36.8 5.056.8 1.728 0 3.392-.288 5.056-.832l96-32c6.176-2.048 10.464-7.616 10.912-14.112l16-240a16.112 16.112 0 0 0-4.288-12z" fill="#000000" data-original="#000000"/><path d="M359.355 224h-211.52c-8.832 0-16 7.168-16 16s7.168 16 16 16h211.52c8.864 0 16-7.168 16-16s-7.168-16-16-16z" fill="#000000" data-original="#000000"/></g></svg>