<svg xmlns="http://www.w3.org/2000/svg" viewBox="0 0 512 512" style="enable-background:new 0 0 512 512" xml:space="preserve"><path d="M432.721 162.898a277.552 277.552 0 0 0-8.731-3.887c.39-3.196.726-6.367 1-9.506 4.9-56.203-9.656-97.118-40.988-115.207-31.334-18.091-74.046-10.24-120.27 22.106A277.14 277.14 0 0 0 256 62.022a275.665 275.665 0 0 0-7.732-5.618c-46.223-32.346-88.936-40.197-120.27-22.106C96.667 52.387 82.11 93.302 87.01 149.505c.274 3.139.609 6.31 1 9.506a277.545 277.545 0 0 0-8.731 3.886C28.155 186.755 0 219.82 0 256.001c0 36.179 28.155 69.242 79.278 93.101a275.32 275.32 0 0 0 8.732 3.887c-.39 3.196-.726 6.366-1 9.505-4.901 56.203 9.656 97.119 40.99 115.21 31.332 18.089 74.043 10.238 120.267-22.107a275.713 275.713 0 0 0 7.732-5.619 279.244 279.244 0 0 0 7.732 5.619c46.224 32.345 88.935 40.196 120.267 22.107 31.334-18.091 45.891-59.006 40.99-115.21a275.512 275.512 0 0 0-1-9.504 278.707 278.707 0 0 0 8.733-3.887C483.845 325.243 512 292.18 512 256.001c0-36.181-28.155-69.246-79.279-93.103zM93.294 322.521c-.441-.203-.89-.4-1.328-.605C52.586 303.538 30 279.513 30 256.001c0-23.515 22.586-47.541 61.965-65.918.438-.204.887-.402 1.328-.605 4.786 21.564 11.88 43.955 21.05 66.524-9.17 22.569-16.263 44.957-21.049 66.519zM280.932 80.983c35.604-24.915 67.705-32.461 88.069-20.704 20.362 11.756 29.875 43.329 26.101 86.622-.042.482-.095.969-.14 1.453-21.067-6.636-44.004-11.688-68.134-15.031-14.96-19.226-30.804-36.564-47.084-51.491.395-.281.791-.572 1.188-.849zM132.035 294.7a536.116 536.116 0 0 0 13.573 25.034 535.817 535.817 0 0 0 14.894 24.273c-13.628-2.855-26.655-6.333-38.917-10.404 2.607-12.654 6.109-25.674 10.45-38.903zm-10.449-116.304c12.263-4.07 25.291-7.548 38.92-10.403a536.409 536.409 0 0 0-14.894 24.274 536.307 536.307 0 0 0-13.576 25.038c-4.342-13.231-7.844-26.252-10.45-38.909zm25.299 77.607c7.126-16.258 15.388-32.595 24.707-48.736 9.318-16.14 19.335-31.462 29.851-45.762 17.642-1.957 35.92-2.971 54.557-2.971 18.636 0 36.914 1.014 54.556 2.971 10.516 14.3 20.533 29.622 29.851 45.762 9.319 16.141 17.58 32.478 24.707 48.736-7.126 16.256-15.386 32.592-24.704 48.731-9.318 16.14-19.336 31.463-29.852 45.763-17.642 1.957-35.921 2.971-54.557 2.971-18.637 0-36.916-1.014-54.558-2.972-10.516-14.3-20.534-29.623-29.852-45.762-9.319-16.139-17.58-32.475-24.706-48.731zm219.505 63.731a534.679 534.679 0 0 0 13.573-25.034c4.341 13.229 7.843 26.249 10.449 38.904-12.262 4.071-25.289 7.548-38.917 10.404a533.717 533.717 0 0 0 14.895-24.274zm13.574-102.429a536.307 536.307 0 0 0-13.576-25.038 535.853 535.853 0 0 0-14.894-24.274c13.629 2.855 26.657 6.333 38.92 10.403-2.607 12.656-6.109 25.678-10.45 38.909zM256 100.793c9.657 8.585 19.182 18.128 28.469 28.504-9.391-.5-18.889-.762-28.469-.762s-19.079.262-28.469.762c9.286-10.376 18.812-19.919 28.469-28.504zM142.998 60.279c20.364-11.757 52.465-4.211 88.069 20.704.396.277.792.568 1.189.849-16.281 14.926-32.124 32.265-47.085 51.491-24.13 3.343-47.067 8.395-68.134 15.031-.045-.483-.098-.971-.14-1.453-3.774-43.294 5.74-74.866 26.101-86.622zm88.07 370.737c-35.606 24.915-67.705 32.462-88.067 20.706-20.364-11.757-29.879-43.331-26.104-86.622.042-.482.095-.97.14-1.453 21.067 6.637 44.004 11.689 68.133 15.032 14.96 19.225 30.804 36.563 47.085 51.489-.396.281-.791.571-1.187.848zM256 411.208c-9.657-8.584-19.182-18.127-28.469-28.502 9.391.5 18.89.762 28.469.762s19.078-.262 28.468-.762c-9.286 10.374-18.812 19.917-28.468 28.502zm112.998 40.514c-20.362 11.756-52.461 4.209-88.067-20.706-.396-.277-.792-.567-1.188-.848 16.281-14.926 32.125-32.264 47.085-51.489 24.13-3.344 47.067-8.395 68.133-15.032.045.483.098.971.14 1.453 3.776 43.292-5.738 74.865-26.103 86.622zm51.036-129.806c-.438.205-.887.402-1.329.605-4.786-21.562-11.88-43.951-21.049-66.519 9.17-22.57 16.264-44.961 21.05-66.525.441.203.891.401 1.329.605C459.414 208.46 482 232.487 482 256.001c0 23.512-22.586 47.537-61.966 65.915z" data-original="#000000"/><circle cx="256" cy="256.001" r="63.2" data-original="#000000"/></svg>